<svg width="21" height="21" viewBox="0 0 21 21" fill="none" xmlns="http://www.w3.org/2000/svg">
<g opacity="0.4" clip-path="url(#clip0_1:224)">
<path d="M2.58446 3.4731L3.47284 2.58472L18.0922 17.2041L17.2039 18.0925L2.58446 3.4731ZM10.4733 7.75734L12.9194 10.2034C12.8854 9.56572 12.6168 8.96309 12.1652 8.51152C11.7136 8.05994 11.111 7.79132 10.4733 7.75734ZM10.2035 12.9193L7.7574 10.4732C7.79139 11.1109 8.06001 11.7135 8.51158 12.1651C8.96316 12.6167 9.56578 12.8853 10.2035 12.9193Z" fill="#2B365A"/>
<path d="M10.3385 14.2154C9.74209 14.2154 9.15369 14.0778 8.61911 13.8133C8.08453 13.5488 7.61818 13.1646 7.25634 12.6904C6.89451 12.2163 6.64694 11.6651 6.53292 11.0796C6.41889 10.4942 6.44147 9.89036 6.5989 9.31509L3.80954 6.52532C2.67029 7.56885 1.58475 8.93062 0.64621 10.3384C1.71317 12.1154 3.17267 13.9424 4.69275 14.9899C6.43656 16.191 8.33261 16.8 10.3288 16.8C11.4197 16.8007 12.5025 16.6122 13.5289 16.2427L11.3639 14.078C11.0298 14.1695 10.6849 14.2157 10.3385 14.2154ZM10.3385 6.46151C10.9349 6.46148 11.5233 6.59906 12.0579 6.86355C12.5925 7.12803 13.0589 7.51229 13.4207 7.98643C13.7825 8.46057 14.0301 9.01179 14.1441 9.59722C14.2581 10.1827 14.2356 10.7865 14.0781 11.3618L16.9317 14.2154C18.1089 13.1553 19.1961 11.7293 20.0308 10.3384C18.9655 8.58453 17.4906 6.76197 15.9447 5.70147C14.1791 4.49074 12.2895 3.87689 10.3288 3.87689C9.24992 3.87844 8.18008 4.07391 7.17034 4.45399L9.31517 6.59882C9.64862 6.50755 9.9928 6.46137 10.3385 6.46151Z" fill="#2B365A"/>
</g>
<defs>
<clipPath id="clip0_1:224">
<rect width="20.6769" height="20.6769" fill="white"/>
</clipPath>
</defs>
</svg>
