<svg width="135" height="79" viewBox="0 0 135 79" fill="none" xmlns="http://www.w3.org/2000/svg">
<path d="M16.266 39.9775C14.351 39.9775 12.46 39.7261 10.5929 39.2234C8.72587 38.7208 7.20587 38.0386 6.03296 37.1768L8.15138 32.4014C9.39611 33.1913 10.7126 33.8017 12.101 34.2326C13.5132 34.6395 14.9255 34.843 16.3378 34.843C17.774 34.843 18.8751 34.6515 19.6411 34.2685C20.4071 33.8615 20.7901 33.299 20.7901 32.5809C20.7901 31.9346 20.443 31.408 19.7488 31.0011C19.0547 30.5702 17.7501 30.1513 15.8351 29.7444C13.4175 29.2656 11.5384 28.6792 10.198 27.985C8.85753 27.2669 7.91201 26.4291 7.36146 25.4716C6.83485 24.5141 6.57154 23.3532 6.57154 21.9888C6.57154 20.4329 7.01438 19.0326 7.90005 17.7878C8.78571 16.5192 10.0304 15.5378 11.6342 14.8436C13.238 14.1255 15.0691 13.7664 17.1277 13.7664C18.9709 13.7664 20.7542 14.0297 22.4776 14.5563C24.225 15.059 25.5895 15.7293 26.5709 16.5671L24.4884 21.3425C23.3633 20.5526 22.1784 19.9541 20.9337 19.5472C19.689 19.1164 18.4443 18.9009 17.1995 18.9009C15.9787 18.9009 14.9973 19.1403 14.2553 19.619C13.5132 20.0738 13.1422 20.6962 13.1422 21.4861C13.1422 21.917 13.2739 22.276 13.5372 22.5633C13.8005 22.8505 14.2912 23.1378 15.0093 23.425C15.7274 23.6883 16.8046 23.9756 18.2408 24.2867C20.5627 24.7894 22.3819 25.3998 23.6984 26.1179C25.0389 26.8121 25.9844 27.6379 26.535 28.5954C27.0855 29.5289 27.3608 30.654 27.3608 31.9705C27.3608 34.46 26.3913 36.4228 24.4524 37.859C22.5135 39.2713 19.7847 39.9775 16.266 39.9775ZM42.7957 20.9116C44.3516 20.9116 45.7399 21.3186 46.9607 22.1324C48.1815 22.9463 49.139 24.0833 49.8332 25.5434C50.5273 27.0036 50.8744 28.6792 50.8744 30.5702C50.8744 32.4373 50.5273 34.089 49.8332 35.5252C49.1629 36.9375 48.2174 38.0266 46.9966 38.7926C45.7758 39.5586 44.3755 39.9415 42.7957 39.9415C41.5988 39.9415 40.5097 39.7141 39.5283 39.2593C38.5469 38.7806 37.7928 38.1223 37.2662 37.2845V47.4099H30.7673V26.6565C30.7673 24.6937 30.6716 22.9463 30.4801 21.4143H36.584L36.9431 24.2508C37.3979 23.2455 38.1519 22.4436 39.2051 21.8452C40.2584 21.2228 41.4552 20.9116 42.7957 20.9116ZM40.8209 35.0943C41.9938 35.0943 42.8795 34.7113 43.4779 33.9453C44.0763 33.1793 44.3755 32.0543 44.3755 30.5702C44.3755 29.0622 44.0643 27.9012 43.442 27.0874C42.8436 26.2496 41.9699 25.8307 40.8209 25.8307C39.648 25.8307 38.7503 26.2256 38.128 27.0156C37.5056 27.8055 37.1944 28.9664 37.1944 30.4984C37.1944 31.9825 37.5056 33.1195 38.128 33.9094C38.7503 34.6993 39.648 35.0943 40.8209 35.0943ZM70.7492 31.1806H59.2954C59.4151 32.5929 59.822 33.6102 60.5162 34.2326C61.2103 34.8549 62.2277 35.1661 63.5681 35.1661C64.4777 35.1661 65.3874 35.0225 66.297 34.7352C67.2066 34.4241 68.0324 34.0052 68.7744 33.4786L70.4261 37.7872C69.5165 38.4575 68.4154 38.9841 67.1228 39.3671C65.8302 39.7501 64.5376 39.9415 63.245 39.9415C61.1625 39.9415 59.3552 39.5586 57.8233 38.7926C56.2913 38.0266 55.1184 36.9375 54.3045 35.5252C53.4907 34.089 53.0837 32.4014 53.0837 30.4625C53.0837 28.6193 53.4667 26.9797 54.2327 25.5434C55.0226 24.0833 56.0998 22.9463 57.4642 22.1324C58.8525 21.3186 60.4324 20.9116 62.2037 20.9116C63.9272 20.9116 65.4352 21.2946 66.7278 22.0606C68.0204 22.8266 69.0138 23.9277 69.708 25.3639C70.4022 26.7762 70.7492 28.4278 70.7492 30.3189V31.1806ZM62.3833 25.3639C60.7795 25.3639 59.7741 26.2975 59.3672 28.1645H65.1839C64.9445 26.2975 64.011 25.3639 62.3833 25.3639ZM82.804 39.9415C79.7161 39.9415 77.2984 39.1038 75.551 37.4282C73.8036 35.7526 72.9299 33.4666 72.9299 30.5702C72.9299 28.6552 73.3488 26.9677 74.1866 25.5075C75.0484 24.0474 76.2452 22.9223 77.7772 22.1324C79.3092 21.3186 81.0805 20.9116 83.0912 20.9116C84.4317 20.9116 85.7482 21.1151 87.0408 21.522C88.3334 21.905 89.3627 22.4316 90.1287 23.1019L88.477 27.5901C87.8307 27.0634 87.0767 26.6445 86.215 26.3334C85.3533 26.0222 84.5274 25.8666 83.7375 25.8666C82.397 25.8666 81.3677 26.2496 80.6496 27.0156C79.9315 27.7815 79.5725 28.9186 79.5725 30.4266C79.5725 31.9586 79.9315 33.1195 80.6496 33.9094C81.3677 34.6754 82.409 35.0584 83.7734 35.0584C84.5633 35.0584 85.3772 34.9028 86.215 34.5916C87.0767 34.2804 87.8307 33.8615 88.477 33.3349L90.1287 37.7513C89.3388 38.4455 88.2855 38.9841 86.969 39.3671C85.6764 39.7501 84.2881 39.9415 82.804 39.9415Z" fill="#E5E5E5"/>
<path d="M75.4673 7.45793C75.4671 6.17085 75.9844 4.93772 76.9028 4.036C77.8212 3.13428 79.0636 2.6397 80.3505 2.66354C81.8752 2.65544 83.3301 3.30206 84.3458 4.43924C85.3615 3.30206 86.8164 2.65544 88.3411 2.66354C89.628 2.6397 90.8704 3.13428 91.7888 4.036C92.7072 4.93772 93.2245 6.17085 93.2243 7.45793C93.2243 12.2133 87.5607 15.8037 84.3458 18.6449C81.138 15.7798 75.4673 12.2168 75.4673 7.45793Z" fill="#EB5757"/>
<path d="M52.1015 49.4304C51.8298 49.2837 51.5582 49.2103 51.2865 49.2103C51.0149 49.2103 50.7523 49.247 50.4988 49.3204C49.5571 49.5893 48.5973 50.9341 47.6194 53.3548C47.3658 53.9661 46.569 56.3623 45.2289 60.5434H47.1847C47.5469 60.5434 47.8095 60.519 47.9725 60.4701C47.9725 60.6412 47.8367 60.8002 47.565 60.9469C47.058 61.3136 46.3064 61.4969 45.3104 61.4969C45.1836 61.4969 45.0569 61.4969 44.9301 61.4969C43.8616 65.1157 43.1373 67.4876 42.757 68.6123C42.3767 69.7126 42.0145 70.6783 41.6704 71.5098C41.3263 72.3411 40.8917 73.2213 40.3666 74.1505C39.8595 75.0795 39.3434 75.8743 38.8182 76.5345C38.2749 77.1946 37.6502 77.7448 36.9439 78.1848C36.2376 78.625 35.5223 78.8451 34.7979 78.8451C33.2948 78.8451 32.3803 78.2338 32.0543 77.0112C32.0181 76.84 32 76.6934 32 76.5711C32 76.4733 32.0091 76.351 32.0272 76.2044C32.0453 76.0821 32.0634 75.9599 32.0815 75.8375C32.0996 75.7398 32.1358 75.5809 32.1902 75.3608C32.2445 75.1407 32.2807 74.9818 32.2988 74.884C32.3169 74.8106 32.3712 74.6395 32.4618 74.3706C32.5342 74.1016 32.5886 73.9181 32.6248 73.8204C32.6429 73.7226 32.6882 73.6614 32.7606 73.637C32.8149 73.6126 32.8602 73.637 32.8964 73.7103C32.9326 73.7836 32.9145 73.9427 32.8421 74.1872C32.7515 74.4562 32.7063 74.7617 32.7063 75.1041C32.7063 75.4464 32.7515 75.7642 32.8421 76.0576C33.2043 77.2313 34.0373 77.8914 35.3412 78.0382C35.4136 78.0382 35.4951 78.0382 35.5857 78.0382C36.0746 78.0382 36.5455 77.867 36.9982 77.5247C38.2297 76.669 39.4068 74.8229 40.5296 71.9865C41.0728 70.6173 41.6704 68.7345 42.3223 66.3383C42.9743 63.9177 43.418 62.304 43.6534 61.4969H43.0286C43.0105 61.4969 42.8113 61.5337 42.431 61.607L42.3767 61.5704C42.4129 61.3259 42.5849 61.0936 42.8928 60.8735C43.2007 60.6534 43.4542 60.5434 43.6534 60.5434H43.9794C45.8809 54.5773 47.6194 50.8852 49.1949 49.4671C50.1185 48.5868 51.1417 48.1467 52.2644 48.1467C52.4999 48.1467 52.7172 48.2445 52.9164 48.4401C53.1156 48.6357 53.2061 48.9047 53.188 49.247L53.1065 50.5674C53.1065 50.6163 53.0794 50.6529 53.025 50.6774C52.9707 50.7018 52.9345 50.6896 52.9164 50.6407C52.8439 50.0539 52.5723 49.6505 52.1015 49.4304ZM50.1359 68.3922C49.7918 68.9057 49.3119 69.4192 48.6962 69.9326C48.0986 70.4217 47.5462 70.6662 47.0392 70.6662C46.5502 70.6662 46.3057 70.434 46.3057 69.9694C46.3057 69.5292 46.3963 69.0402 46.5774 68.5022C46.7041 68.1111 47.4285 66.0328 48.7505 62.2672C47.7907 63.6609 46.9214 65.0547 46.1427 66.4483C46.016 66.6929 45.9526 66.6684 45.9526 66.375C45.9526 66.1794 45.9979 66.0082 46.0884 65.8616C47.3742 63.7099 48.3611 61.9615 49.0493 60.6168C49.9548 60.4456 50.4981 60.25 50.6792 60.0299C50.8602 59.8099 50.9598 59.7977 50.978 59.9933C50.978 60.0911 50.9327 60.2133 50.8421 60.36C50.7697 60.4823 50.0363 62.3161 48.6418 65.8616C48.0261 67.4264 47.7183 68.5022 47.7183 69.089C47.7183 69.4314 47.845 69.6025 48.0986 69.6025C48.6599 69.6025 49.6741 68.4289 51.1409 66.0816L51.7386 65.1647C51.9559 65.4581 51.4216 66.5339 50.1359 68.3922ZM51.6571 56.5457C51.2224 56.5457 51.0051 56.2278 51.0051 55.5921C51.0051 55.2987 51.1228 55.0419 51.3583 54.8219C51.6118 54.6018 51.8291 54.4918 52.0102 54.4918C52.2094 54.4918 52.3633 54.6018 52.472 54.8219C52.5806 55.0175 52.635 55.1764 52.635 55.2987C52.635 55.7388 52.5173 56.0566 52.2818 56.2523C52.0464 56.4479 51.8382 56.5457 51.6571 56.5457ZM59.4636 61.0569C59.4636 61.3748 59.3097 61.8271 59.0018 62.414C58.712 63.0008 58.2684 64.1133 57.6707 65.7515C57.0731 67.3653 56.7743 68.3922 56.7743 68.8324C56.7743 69.248 56.9011 69.4559 57.1546 69.4559C57.4263 69.4559 57.7703 69.2358 58.1869 68.7956C58.6215 68.331 59.0018 67.8421 59.3278 67.3287C59.6718 66.8152 60.1246 66.0938 60.686 65.1647C60.7222 65.238 60.7403 65.3481 60.7403 65.4947C60.7403 65.6415 60.6226 65.9227 60.3872 66.3383C59.4636 68.0255 58.6849 69.1991 58.051 69.8593C57.4172 70.5194 56.8468 70.8495 56.3397 70.8495C55.7602 70.8495 55.4704 70.4705 55.4704 69.7126C55.4704 68.9301 55.7602 67.7565 56.3397 66.1917C56.9373 64.6022 57.4172 63.2697 57.7794 62.1939C57.9605 61.6804 57.8337 61.5826 57.3991 61.9005C55.3346 63.6365 53.7319 66.5461 52.591 70.6295C52.4824 70.6295 52.2651 70.7029 51.9391 70.8495C51.6312 71.0207 51.4501 71.1063 51.3958 71.1063C51.3234 71.1063 51.3234 70.984 51.3958 70.7395C51.4864 70.5194 51.6403 70.0427 51.8576 69.3091C52.093 68.5756 52.3737 67.6465 52.6997 66.5217C53.3335 64.37 53.7591 62.9519 53.9764 62.2672C53.0166 63.6609 52.1474 65.0547 51.3687 66.4483C51.2419 66.6929 51.1785 66.6684 51.1785 66.375C51.1785 66.1794 51.2238 66.0082 51.3143 65.8616C52.6001 63.7099 53.5871 61.9615 54.2752 60.6168C55.1807 60.4456 55.7059 60.2745 55.8507 60.1033C55.9956 59.9321 56.0862 59.8466 56.1224 59.8466C56.1586 59.8466 56.1767 59.8955 56.1767 59.9933C56.1948 60.0911 56.1405 60.2378 56.0137 60.4334C55.9051 60.6045 55.1988 62.3284 53.8949 65.6048C54.7642 64.0643 55.7783 62.7074 56.9373 61.5337C57.6798 60.8002 58.2865 60.4334 58.7573 60.4334C59.2282 60.4334 59.4636 60.6412 59.4636 61.0569ZM75.2753 50.6774C75.2571 50.6774 75.23 50.6529 75.1938 50.604C75.1213 50.0172 74.8497 49.6016 74.3788 49.357C74.1615 49.2592 73.9261 49.2103 73.6726 49.2103C73.419 49.2103 73.1383 49.2837 72.8305 49.4304C71.9612 49.8461 71.0014 51.3131 69.9511 53.8316C68.9007 56.3501 67.8142 59.2842 66.6914 62.6339C66.6733 62.6584 66.456 63.2575 66.0394 64.4312C65.1159 67.023 64.6541 68.539 64.6541 68.979C64.6541 69.3947 64.7627 69.6025 64.98 69.6025C65.3784 69.6025 65.9942 69.0524 66.8272 67.952C67.6783 66.8273 68.3031 65.886 68.7015 65.128C68.7377 65.1769 68.7559 65.2869 68.7559 65.4581C68.7559 65.6048 68.6291 65.8981 68.3756 66.3383C66.7638 69.2235 65.2698 70.6662 63.8935 70.6662C63.4588 70.6662 63.2415 70.434 63.2415 69.9694C63.2415 69.1135 63.5947 67.9399 64.3009 66.4483C63.6671 67.3531 63.0061 68.2089 62.3179 69.0157C61.34 70.0916 60.5161 70.6295 59.846 70.6295C59.52 70.6295 59.357 70.3605 59.357 69.8226C59.357 69.7004 59.3661 69.6148 59.3842 69.5659C59.511 68.1966 59.9275 66.7296 60.6338 65.1647C61.3581 63.5999 62.1459 62.3773 62.997 61.4969C63.5765 60.8613 64.2738 60.5434 65.0887 60.5434C65.5052 60.5434 65.9217 60.5434 66.3382 60.5434C66.628 59.8832 67.0898 58.7463 67.7236 57.1325C68.3574 55.4943 68.8102 54.3695 69.0818 53.7582C70.7298 49.9928 72.5498 48.11 74.5418 48.11C74.7954 48.11 75.0127 48.2078 75.1938 48.4034C75.393 48.5991 75.4835 48.868 75.4654 49.2103L75.4111 50.5307C75.4111 50.6285 75.3658 50.6774 75.2753 50.6774ZM65.795 61.717C65.795 61.2526 65.5595 61.0202 65.0887 61.0202C64.636 61.0202 64.1289 61.3748 63.5675 62.0839C63.0061 62.7929 62.3904 63.9421 61.7203 65.5314C61.0684 67.0963 60.7424 68.2333 60.7424 68.9424C60.7424 69.2358 60.8149 69.3824 60.9597 69.3824C61.4849 69.3824 62.4175 68.3066 63.7576 66.155C65.1159 63.9789 65.795 62.4995 65.795 61.717ZM82.5251 48.0734C82.9779 48.0734 83.2042 48.4646 83.2042 49.247C83.2042 50.5429 82.4165 52.6335 80.8409 55.5187C79.5008 58.0372 77.6356 60.7513 75.2451 63.6609C74.7743 64.8346 74.4211 66.0938 74.1857 67.4386C74.1314 67.7075 74.1042 67.9643 74.1042 68.2089C74.1042 69.1625 74.4392 69.6392 75.1093 69.6392C75.218 69.6392 75.3357 69.627 75.4624 69.6025C76.223 69.407 77.4364 67.9155 79.1024 65.128C79.1387 65.1769 79.1568 65.2869 79.1568 65.4581C79.1568 65.6048 78.9213 66.0816 78.4505 66.8885C77.9796 67.6709 77.6265 68.221 77.3911 68.539C76.3589 69.9326 75.4262 70.6295 74.5932 70.6295C73.6515 70.6295 73.1806 70.0182 73.1806 68.7956C73.1806 67.8176 73.4704 66.4728 74.0499 64.7613L72.909 66.4483C72.7822 66.6929 72.7189 66.6684 72.7189 66.375C72.7189 66.1794 72.7822 65.9716 72.909 65.7515C73.0539 65.507 73.3346 65.0547 73.7511 64.3944C74.1676 63.7343 74.4755 63.2453 74.6747 62.9275C74.9282 62.2917 75.4443 60.9102 76.223 58.7829C77.871 54.2839 79.1024 51.3009 79.9174 49.8338C80.1166 49.736 80.5059 49.4182 81.0854 48.8802C81.683 48.3423 82.1629 48.0734 82.5251 48.0734ZM80.3792 55.1519C81.6649 52.3156 82.3078 50.3229 82.3078 49.1736C82.3078 48.8802 82.2263 48.7335 82.0633 48.7335C81.4657 48.7335 80.2886 50.8608 78.532 55.1153C77.047 58.734 76.1053 61.0936 75.7069 62.1939C77.4997 60.1889 79.0572 57.8416 80.3792 55.1519ZM85.2379 61.7905C85.2379 63.1108 84.749 64.7246 83.7711 66.6317C83.3908 67.3164 83.0467 67.8543 82.7388 68.2456C83.9341 68.2456 85.0387 67.3408 86.0529 65.5314C86.1434 65.4092 86.1887 65.4581 86.1887 65.6782C86.1887 65.8737 86.1525 66.0328 86.08 66.155C85.1564 67.891 84.1061 68.7591 82.929 68.7591C82.766 68.7591 82.603 68.7468 82.44 68.7223C81.4259 69.9938 80.285 70.6295 79.0173 70.6295C78.2748 70.6295 77.9036 70.2016 77.9036 69.3458C77.9036 67.952 78.4016 66.3262 79.3976 64.4678C80.0315 63.2453 80.8011 62.2794 81.7066 61.5704C82.6664 60.7635 83.4813 60.36 84.1514 60.36C84.8757 60.36 85.2379 60.8368 85.2379 61.7905ZM83.9341 61.8271C83.9341 61.2403 83.7711 60.9469 83.4451 60.9469C83.3364 60.9469 83.1282 61.0324 82.8203 61.2036C82.5125 61.3503 82.1231 61.7538 81.6523 62.414C81.1995 63.0497 80.7649 63.8688 80.3484 64.8713C79.5697 66.6073 79.1803 67.9032 79.1803 68.7591C79.1803 69.5904 79.3433 70.006 79.6693 70.006C79.9228 70.006 80.2035 69.8959 80.5114 69.676C80.8192 69.4314 81.0637 69.1869 81.2448 68.9424C81.8062 68.1355 82.3947 67.0474 83.0105 65.6782C83.6262 64.2844 83.9341 63.0008 83.9341 61.8271ZM89.4388 70.0794C88.5334 70.8374 87.8543 70.9719 87.4015 70.4828C87.1661 70.2139 87.0574 69.7248 87.0755 69.0157C87.0755 66.9129 87.3472 64.8835 87.8905 62.9275C87.6369 63.4164 87.2476 64.1255 86.7224 65.0547C86.1972 65.9593 85.9256 66.4239 85.9075 66.4483C85.7807 66.6929 85.7173 66.6684 85.7173 66.375C85.7173 66.1794 85.7626 66.0082 85.8532 65.8616C86.8673 64.0277 87.7094 62.4017 88.3794 60.9835C89.0314 60.8613 89.475 60.6534 89.7105 60.36C89.7829 60.2622 89.8372 60.2133 89.8735 60.2133C89.9278 60.2133 89.9549 60.2622 89.9549 60.36C89.9549 60.4578 89.9278 60.5556 89.8735 60.6534C89.5475 61.3136 89.1762 62.5606 88.7597 64.3944C88.3432 66.2283 88.1349 67.5853 88.1349 68.4655C88.1349 69.3214 88.2889 69.7493 88.5967 69.7493C89.3211 69.7493 90.2628 68.5022 91.4218 66.0082C92.2549 64.1744 92.6895 62.7318 92.7257 61.6804C92.7257 61.1181 92.6533 60.7757 92.5084 60.6534C92.3635 60.5801 92.3092 60.5067 92.3454 60.4334C92.3997 60.36 92.4541 60.3234 92.5084 60.3234C92.5627 60.3234 92.6442 60.3478 92.7529 60.3967C92.8615 60.4456 92.9611 60.4945 93.0517 60.5434C93.3595 60.739 93.5497 60.9469 93.6221 61.167C93.6946 61.3625 93.7308 61.607 93.7308 61.9005C93.7308 62.7807 93.1513 64.2478 91.9923 66.3017C90.8333 68.3555 89.9821 69.6148 89.4388 70.0794ZM95.1147 66.1917C94.843 67.1452 94.7072 68.0376 94.7072 68.869C94.7072 69.676 95.0784 70.0794 95.8209 70.0794C96.0926 70.0794 96.4457 69.9694 96.8803 69.7493C97.5866 69.4314 98.32 68.8201 99.0806 67.9155C99.8412 67.0107 100.466 66.1305 100.955 65.2748C101.009 65.3481 101.036 65.4458 101.036 65.5682C101.036 65.6904 100.973 65.8737 100.846 66.1182C100.176 67.3653 99.3432 68.4655 98.3472 69.4192C97.3512 70.3728 96.337 70.8495 95.3048 70.8495C93.9647 70.8495 93.2947 70.1894 93.2947 68.869C93.2947 67.8176 93.7112 66.3627 94.5442 64.5045C95.0151 63.502 95.6851 62.5729 96.5544 61.717C97.4236 60.8368 98.2566 60.3967 99.0535 60.3967C99.8503 60.3967 100.249 60.9102 100.249 61.9371C100.249 63.0129 99.9318 63.8321 99.2979 64.3944C98.6822 64.9324 97.976 65.3725 97.1791 65.7148C96.4004 66.0328 95.7123 66.1917 95.1147 66.1917ZM95.332 65.4581C95.4406 65.4581 95.6398 65.4581 95.9296 65.4581C96.2374 65.4581 96.5996 65.3725 97.0162 65.2013C98.0484 64.7857 98.7184 64.0033 99.0263 62.854C99.1168 62.5117 99.1621 62.1939 99.1621 61.9005C99.1621 61.5826 99.0897 61.3625 98.9448 61.2403C98.7999 61.0936 98.6732 61.0202 98.5645 61.0202C97.3874 61.0447 96.3099 62.5239 95.332 65.4581ZM111.711 60.25C112.073 60.25 112.254 60.4456 112.254 60.8368C112.254 61.1547 112.137 61.607 111.901 62.1939C111.503 63.0497 110.996 64.2844 110.38 65.8981C109.783 67.512 109.484 68.5145 109.484 68.9057C109.484 69.2725 109.538 69.5048 109.647 69.6025C109.755 69.676 109.882 69.6881 110.027 69.6392C110.335 69.5415 110.588 69.3824 110.788 69.1625C111.548 68.3801 112.427 67.1575 113.423 65.4947L113.45 65.6782C113.432 66.0205 113.296 66.4116 113.042 66.8518C112.807 67.2675 112.463 67.8176 112.01 68.5022C111.032 70.0182 110.081 70.7762 109.158 70.7762C108.451 70.7762 108.098 70.4584 108.098 69.8226C108.098 69.5781 108.126 69.3458 108.18 69.1258C108.252 68.8812 108.669 67.6831 109.429 65.5314C110.208 63.3553 110.597 62.2061 110.597 62.0839C110.597 61.9615 110.561 61.9005 110.489 61.9005C110.29 61.9005 109.873 62.2549 109.239 62.9641C108.424 63.991 107.646 65.1524 106.903 66.4483C106.179 67.7198 105.663 68.9424 105.355 70.116C105.282 70.3849 105.047 70.5439 104.648 70.5929C104.25 70.6662 104.051 70.605 104.051 70.4094C104.051 70.3605 104.096 70.2139 104.187 69.9694C104.259 69.7004 104.612 68.5022 105.246 66.375C105.898 64.2478 106.441 62.5606 106.876 61.3136C108.506 56.4234 110.244 52.878 112.091 50.6774C113.595 48.8925 115.206 48 116.927 48C117.923 48 118.457 48.5257 118.529 49.5771C118.547 49.6994 118.557 49.8705 118.557 50.0906C118.557 50.3106 118.52 50.5918 118.448 50.9341C118.43 51.0319 118.385 51.0808 118.312 51.0808H118.176C118.158 51.0808 118.158 51.0442 118.176 50.9708C118.194 50.8975 118.203 50.8119 118.203 50.7141C118.203 49.7605 117.669 49.2837 116.601 49.2837C114.971 49.2837 113.468 50.0906 112.091 51.7043C110.425 53.6849 108.949 56.9736 107.664 61.5704C107.483 62.2305 107.229 63.1597 106.903 64.3579C106.577 65.5559 106.351 66.375 106.224 66.8152C108.669 62.4384 110.498 60.25 111.711 60.25ZM114.453 66.1917C114.182 67.1452 114.046 68.0376 114.046 68.869C114.046 69.676 114.417 70.0794 115.16 70.0794C115.431 70.0794 115.784 69.9694 116.219 69.7493C116.925 69.4314 117.659 68.8201 118.419 67.9155C119.18 67.0107 119.805 66.1305 120.294 65.2748C120.348 65.3481 120.375 65.4458 120.375 65.5682C120.375 65.6904 120.312 65.8737 120.185 66.1182C119.515 67.3653 118.682 68.4655 117.686 69.4192C116.69 70.3728 115.676 70.8495 114.643 70.8495C113.303 70.8495 112.633 70.1894 112.633 68.869C112.633 67.8176 113.05 66.3627 113.883 64.5045C114.354 63.502 115.024 62.5729 115.893 61.717C116.762 60.8368 117.595 60.3967 118.392 60.3967C119.189 60.3967 119.587 60.9102 119.587 61.9371C119.587 63.0129 119.27 63.8321 118.637 64.3944C118.021 64.9324 117.315 65.3725 116.518 65.7148C115.739 66.0328 115.051 66.1917 114.453 66.1917ZM114.671 65.4581C114.779 65.4581 114.978 65.4581 115.268 65.4581C115.576 65.4581 115.938 65.3725 116.355 65.2013C117.387 64.7857 118.057 64.0033 118.365 62.854C118.455 62.5117 118.501 62.1939 118.501 61.9005C118.501 61.5826 118.428 61.3625 118.283 61.2403C118.139 61.0936 118.012 61.0202 117.903 61.0202C116.726 61.0447 115.648 62.5239 114.671 65.4581ZM126.922 63.2942C126.922 62.1695 126.66 61.607 126.135 61.607C125.627 61.607 124.894 62.3528 123.934 63.8444C122.993 65.3114 122.277 66.8885 121.788 68.5756L121.218 70.6295C121.109 70.6295 120.892 70.7029 120.566 70.8495C120.24 70.9963 120.068 71.0696 120.05 71.0696C119.959 71.0696 119.95 70.9596 120.023 70.7395C120.113 70.5194 120.267 70.0427 120.484 69.3091C120.72 68.5756 121 67.6465 121.326 66.5217C121.96 64.37 122.386 62.9519 122.603 62.2672C121.643 63.6609 120.774 65.0547 119.995 66.4483C119.869 66.6929 119.805 66.6684 119.805 66.375C119.805 66.1794 119.851 66.0082 119.941 65.8616C121.227 63.7099 122.214 61.9615 122.902 60.6168C123.807 60.4456 124.333 60.2745 124.477 60.1033C124.622 59.9321 124.713 59.8466 124.749 59.8466C124.785 59.8466 124.803 59.8955 124.803 59.9933C124.822 60.0911 124.776 60.2256 124.668 60.3967C124.559 60.5679 123.952 62.0227 122.848 64.7613C123.337 63.7588 123.952 62.7684 124.695 61.7905C125.455 60.8124 126.098 60.3234 126.623 60.3234C127.167 60.3234 127.52 60.629 127.683 61.2403C127.755 61.3625 127.792 61.4969 127.792 61.6437C127.792 61.7905 127.773 61.986 127.737 62.2305C127.701 62.4506 127.665 62.6339 127.629 62.7807C127.429 63.3919 127.284 63.7588 127.194 63.881C127.14 64.0033 127.049 64.0766 126.922 64.1011C126.904 64.0766 126.886 64.0522 126.868 64.0277C126.904 63.7588 126.922 63.5143 126.922 63.2942ZM128.619 66.1917C128.347 67.1452 128.212 68.0376 128.212 68.869C128.212 69.676 128.583 70.0794 129.325 70.0794C129.597 70.0794 129.95 69.9694 130.385 69.7493C131.091 69.4314 131.824 68.8201 132.585 67.9155C133.346 67.0107 133.97 66.1305 134.459 65.2748C134.514 65.3481 134.541 65.4458 134.541 65.5682C134.541 65.6904 134.478 65.8737 134.351 66.1182C133.681 67.3653 132.848 68.4655 131.852 69.4192C130.855 70.3728 129.841 70.8495 128.809 70.8495C127.469 70.8495 126.799 70.1894 126.799 68.869C126.799 67.8176 127.215 66.3627 128.049 64.5045C128.519 63.502 129.189 62.5729 130.059 61.717C130.928 60.8368 131.761 60.3967 132.558 60.3967C133.355 60.3967 133.753 60.9102 133.753 61.9371C133.753 63.0129 133.436 63.8321 132.802 64.3944C132.187 64.9324 131.48 65.3725 130.683 65.7148C129.905 66.0328 129.217 66.1917 128.619 66.1917ZM128.836 65.4581C128.945 65.4581 129.144 65.4581 129.434 65.4581C129.742 65.4581 130.104 65.3725 130.52 65.2013C131.553 64.7857 132.223 64.0033 132.531 62.854C132.621 62.5117 132.667 62.1939 132.667 61.9005C132.667 61.5826 132.594 61.3625 132.449 61.2403C132.304 61.0936 132.178 61.0202 132.069 61.0202C130.892 61.0447 129.814 62.5239 128.836 65.4581Z" fill="white"/>
</svg>
