<svg width="20" height="20" viewBox="0 0 20 20" fill="none" xmlns="http://www.w3.org/2000/svg">
<path d="M10 20C8.48807 20.0043 6.99523 19.6622 5.63601 19C5.13856 18.758 4.66194 18.4754 4.21101 18.155L4.07401 18.055C2.83383 17.1396 1.81988 15.9522 1.11001 14.584C0.375744 13.1679 -0.00508427 11.5952 -4.21298e-05 10C-4.21298e-05 4.47715 4.47716 0 10 0C15.5229 0 20.0001 4.47715 20.0001 10C20.005 11.5944 19.6246 13.1664 18.891 14.582C18.1821 15.9494 17.1696 17.1364 15.931 18.052C15.4638 18.394 14.9679 18.6951 14.449 18.952L14.369 18.992C13.0089 19.6577 11.5143 20.0026 10 20ZM10 15C8.50148 14.9971 7.12767 15.834 6.44301 17.167C8.6844 18.2772 11.3156 18.2772 13.557 17.167V17.162C12.8715 15.8305 11.4976 14.9954 10 15ZM10 13C12.1661 13.0028 14.1634 14.1701 15.229 16.056L15.244 16.043L15.258 16.031L15.241 16.046L15.231 16.054C17.76 13.8691 18.6643 10.3423 17.4987 7.21011C16.333 4.07788 13.3431 2.00032 10.001 2.00032C6.65892 2.00032 3.669 4.07788 2.50336 7.21011C1.33772 10.3423 2.24201 13.8691 4.77101 16.054C5.83727 14.169 7.83437 13.0026 10 13ZM10 12C7.79087 12 6.00001 10.2091 6.00001 8C6.00001 5.79086 7.79087 4 10 4C12.2091 4 14 5.79086 14 8C14 9.06087 13.5786 10.0783 12.8284 10.8284C12.0783 11.5786 11.0609 12 10 12ZM10 6C8.89544 6 8.00001 6.89543 8.00001 8C8.00001 9.10457 8.89544 10 10 10C11.1046 10 12 9.10457 12 8C12 6.89543 11.1046 6 10 6Z" fill="#2E3A59"/>
</svg>
