<svg width="19" height="19" viewBox="0 0 19 19" fill="none" xmlns="http://www.w3.org/2000/svg">
<path fill-rule="evenodd" clip-rule="evenodd" d="M0.833336 8.74999C0.833336 4.37776 4.37777 0.833328 8.75 0.833328C13.1222 0.833328 16.6667 4.37776 16.6667 8.74999C16.6667 10.6359 16.0072 12.3679 14.9063 13.7277L17.9672 16.7887C18.2927 17.1141 18.2927 17.6418 17.9672 17.9672C17.6418 18.2926 17.1141 18.2926 16.7887 17.9672L13.7278 14.9063C12.3679 16.0072 10.636 16.6667 8.75 16.6667C4.37777 16.6667 0.833336 13.1222 0.833336 8.74999ZM8.75 2.49999C5.29824 2.49999 2.5 5.29823 2.5 8.74999C2.5 12.2018 5.29824 15 8.75 15C12.2018 15 15 12.2018 15 8.74999C15 5.29823 12.2018 2.49999 8.75 2.49999ZM5.80373 5.38701C6.55686 4.63393 7.59966 4.16666 8.75 4.16666C9.90034 4.16666 10.9432 4.63393 11.6963 5.38703C12.0217 5.71247 12.0217 6.24011 11.6963 6.56554C11.3708 6.89098 10.8432 6.89098 10.5177 6.56554C10.0644 6.11223 9.44058 5.83333 8.75 5.83333C8.05943 5.83333 7.43556 6.11223 6.9822 6.56556C6.65675 6.89099 6.12911 6.89097 5.80368 6.56552C5.47826 6.24007 5.47828 5.71244 5.80373 5.38701Z" fill="black" fill-opacity="0.4"/>
</svg>
