<svg width="20" height="15" viewBox="0 0 20 15" fill="none" xmlns="http://www.w3.org/2000/svg">
<path d="M0 15H2C2 12.7909 3.79086 11 6 11C8.20914 11 10 12.7909 10 15H12C12 11.6863 9.31371 9 6 9C2.68629 9 0 11.6863 0 15Z" fill="#2E3A59"/>
<path d="M2 4C2 1.79086 3.79086 0 6 0C8.20914 0 10 1.79086 10 4C9.99724 6.208 8.208 7.99725 6 8C3.79086 8 2 6.20914 2 4ZM4.00223 3.97134C3.98658 5.06383 4.85057 5.9667 5.94269 5.99912C7.03481 6.03153 7.95083 5.1815 8 4.09V4C8 2.89543 7.10457 2 6 2C4.9074 2.00111 4.01789 2.87885 4.00223 3.97134Z" fill="#2E3A59"/>
<path d="M16.339 10.9994C16.131 10.8144 15.896 10.6214 15.647 10.4174L15.6 10.3794L15.5944 10.3749C14.4384 9.43166 13 8.25808 13 6.79942C13.0002 6.31537 13.1953 5.85178 13.5413 5.51329C13.8873 5.1748 14.3551 4.98994 14.839 5.00042C15.4112 4.99888 15.9569 5.24153 16.339 5.66742C16.7212 5.24163 17.2668 4.99901 17.839 5.00042C18.3224 4.99102 18.7893 5.17651 19.1345 5.5151C19.4797 5.85369 19.6741 6.31691 19.674 6.80042C19.674 8.26516 18.2245 9.44739 17.059 10.398L17.056 10.4004L16.999 10.4474L16.9808 10.4623C16.7505 10.6508 16.5329 10.829 16.338 11.0014L16.339 10.9994Z" fill="#2E3A59"/>
</svg>
